<svg width="18" height="18" viewBox="0 0 18 18" fill="none" xmlns="http://www.w3.org/2000/svg">
<path d="M16.5 10.167H10.25V16.417C10.25 16.7485 10.1183 17.0665 9.88388 17.3009C9.64946 17.5353 9.33152 17.667 9 17.667C8.66848 17.667 8.35054 17.5353 8.11612 17.3009C7.8817 17.0665 7.75 16.7485 7.75 16.417V10.167H1.5C1.16848 10.167 0.850537 10.0353 0.616117 9.80088C0.381696 9.56646 0.25 9.24851 0.25 8.91699C0.25 8.58547 0.381696 8.26753 0.616117 8.03311C0.850537 7.79869 1.16848 7.66699 1.5 7.66699H7.75V1.41699C7.75 1.08547 7.8817 0.767529 8.11612 0.533108C8.35054 0.298688 8.66848 0.166992 9 0.166992C9.33152 0.166992 9.64946 0.298688 9.88388 0.533108C10.1183 0.767529 10.25 1.08547 10.25 1.41699V7.66699H16.5C16.8315 7.66699 17.1495 7.79869 17.3839 8.03311C17.6183 8.26753 17.75 8.58547 17.75 8.91699C17.75 9.24851 17.6183 9.56646 17.3839 9.80088C17.1495 10.0353 16.8315 10.167 16.5 10.167Z" fill="#E37F47"/>
</svg>
