<svg width="16" height="16" viewBox="0 0 16 16" fill="none" xmlns="http://www.w3.org/2000/svg">
<path d="M1.89608 16H14.1039C15.2695 16 16 15.0881 16 13.9399C16 13.5937 15.9224 13.2475 15.7514 12.9267L9.63575 1.03852C9.28606 0.354591 8.64885 0 8.00388 0C7.3667 0 6.71394 0.354591 6.36425 1.03852L0.256456 12.9351C0.0854743 13.2559 0 13.5937 0 13.9399C0 15.0881 0.738235 16 1.89608 16ZM8.00388 10.2163C7.59202 10.2163 7.3667 9.96306 7.35115 9.50713L7.24237 5.33615C7.22682 4.88023 7.5532 4.54249 7.99612 4.54249C8.43128 4.54249 8.77318 4.88866 8.75766 5.34458L8.64109 9.50713C8.62557 9.97149 8.40018 10.2163 8.00388 10.2163ZM8.00388 13.3319C7.5532 13.3319 7.13359 12.9436 7.13359 12.42C7.13359 11.8966 7.54541 11.5082 8.00388 11.5082C8.46238 11.5082 8.87424 11.8881 8.87424 12.42C8.87424 12.952 8.45459 13.3319 8.00388 13.3319Z" fill="#E37F47"/>
</svg>
