<svg width="24" height="25" viewBox="0 0 24 25" fill="none" xmlns="http://www.w3.org/2000/svg">
<path d="M2 9.17942C2 7.98324 2.48238 7.25017 3.48063 6.69463L7.58987 4.40779C9.7431 3.2095 10.8197 2.61035 12 2.61035C13.1803 2.61035 14.2569 3.2095 16.4101 4.40779L20.5194 6.69463C21.5176 7.25017 22 7.98325 22 9.17942C22 9.50378 22 9.66596 21.9646 9.79929C21.7785 10.4998 21.1437 10.6104 20.5307 10.6104H3.46928C2.85627 10.6104 2.22152 10.4998 2.03542 9.79929C2 9.66596 2 9.50378 2 9.17942Z" stroke="white" stroke-width="2.04878"/>
<path d="M11.9961 7.61035H12.0051" stroke="white" stroke-width="2.73171" stroke-linecap="round" stroke-linejoin="round"/>
<path d="M4 10.6104V19.1104M8 10.6104V19.1104" stroke="white" stroke-width="2.04878"/>
<path d="M16 10.6104V19.1104M20 10.6104V19.1104" stroke="white" stroke-width="2.04878"/>
<path d="M19 19.1104H5C3.34315 19.1104 2 20.4535 2 22.1104C2 22.3865 2.22386 22.6104 2.5 22.6104H21.5C21.7761 22.6104 22 22.3865 22 22.1104C22 20.4535 20.6569 19.1104 19 19.1104Z" stroke="white" stroke-width="2.04878"/>
</svg>
