<svg width="26" height="23" viewBox="0 0 26 23" fill="none" xmlns="http://www.w3.org/2000/svg">
<path d="M23.3125 4.03125H19.3281L18.3789 1.37109C18.3133 1.18907 18.1931 1.03172 18.0348 0.920559C17.8764 0.809395 17.6876 0.749829 17.4941 0.75H8.50586C8.11035 0.75 7.75586 0.999024 7.62402 1.37109L6.67188 4.03125H2.6875C1.39258 4.03125 0.34375 5.08008 0.34375 6.375V19.7344C0.34375 21.0293 1.39258 22.0781 2.6875 22.0781H23.3125C24.6074 22.0781 25.6562 21.0293 25.6562 19.7344V6.375C25.6562 5.08008 24.6074 4.03125 23.3125 4.03125ZM23.5469 19.7344C23.5469 19.8633 23.4414 19.9688 23.3125 19.9688H2.6875C2.55859 19.9688 2.45312 19.8633 2.45312 19.7344V6.375C2.45312 6.24609 2.55859 6.14063 2.6875 6.14063H8.15723L8.6582 4.74024L9.3291 2.85938H16.668L17.3389 4.74024L17.8398 6.14063H23.3125C23.4414 6.14063 23.5469 6.24609 23.5469 6.375V19.7344ZM13 8.01563C10.4102 8.01563 8.3125 10.1133 8.3125 12.7031C8.3125 15.293 10.4102 17.3906 13 17.3906C15.5898 17.3906 17.6875 15.293 17.6875 12.7031C17.6875 10.1133 15.5898 8.01563 13 8.01563ZM13 15.5156C11.4473 15.5156 10.1875 14.2559 10.1875 12.7031C10.1875 11.1504 11.4473 9.89062 13 9.89062C14.5527 9.89062 15.8125 11.1504 15.8125 12.7031C15.8125 14.2559 14.5527 15.5156 13 15.5156Z" fill="#E37F47"/>
</svg>
