<svg width="32" height="30" viewBox="0 0 32 30" fill="none" xmlns="http://www.w3.org/2000/svg">
<path d="M27.6364 9.18138C27.2242 9.18138 26.879 9.04174 26.6007 8.76247C26.3224 8.4832 26.1828 8.13798 26.1818 7.72683V6.27229H24.7273C24.3151 6.27229 23.9699 6.13265 23.6916 5.85338C23.4133 5.57411 23.2737 5.22889 23.2727 4.81774C23.2718 4.40659 23.4114 4.06138 23.6916 3.78211C23.9719 3.50283 24.3171 3.3632 24.7273 3.3632H26.1818V1.90865C26.1818 1.49653 26.3215 1.15132 26.6007 0.873016C26.88 0.594713 27.2252 0.455076 27.6364 0.454107C28.0475 0.453137 28.3932 0.592773 28.6735 0.873016C28.9537 1.15326 29.0928 1.49847 29.0909 1.90865V3.3632H30.5455C30.9576 3.3632 31.3033 3.50283 31.5825 3.78211C31.8618 4.06138 32.001 4.40659 32 4.81774C31.999 5.22889 31.8594 5.57459 31.5811 5.85483C31.3028 6.13507 30.9576 6.27423 30.5455 6.27229H29.0909V7.72683C29.0909 8.13895 28.9513 8.48465 28.672 8.76392C28.3927 9.04319 28.0475 9.18235 27.6364 9.18138ZM14.5455 24.4541C16.3636 24.4541 17.9093 23.818 19.1825 22.5457C20.4558 21.2735 21.0919 19.7278 21.0909 17.9086C21.0899 16.0895 20.4538 14.5443 19.1825 13.273C17.9113 12.0017 16.3656 11.3651 14.5455 11.3632C12.7253 11.3613 11.1801 11.9979 9.90982 13.273C8.63951 14.5482 8.00291 16.0934 8 17.9086C7.99709 19.7239 8.6337 21.2696 9.90982 22.5457C11.1859 23.8219 12.7311 24.458 14.5455 24.4541ZM14.5455 21.545C13.5273 21.545 12.6667 21.1935 11.9636 20.4905C11.2606 19.7874 10.9091 18.9268 10.9091 17.9086C10.9091 16.8905 11.2606 16.0299 11.9636 15.3268C12.6667 14.6238 13.5273 14.2723 14.5455 14.2723C15.5636 14.2723 16.4242 14.6238 17.1273 15.3268C17.8303 16.0299 18.1818 16.8905 18.1818 17.9086C18.1818 18.9268 17.8303 19.7874 17.1273 20.4905C16.4242 21.1935 15.5636 21.545 14.5455 21.545ZM2.90909 29.545C2.10909 29.545 1.42448 29.2604 0.855273 28.6912C0.286061 28.122 0.000969697 27.4369 0 26.6359V9.18138C0 8.38138 0.285091 7.69677 0.855273 7.12756C1.42545 6.55835 2.11006 6.27326 2.90909 6.27229H7.49091L9.30909 4.30865C9.57576 4.01774 9.89721 3.78744 10.2735 3.61774C10.6497 3.44805 11.0434 3.3632 11.4545 3.3632H18.9091C19.3212 3.3632 19.6669 3.50283 19.9462 3.78211C20.2255 4.06138 20.3646 4.40659 20.3636 4.81774V6.99956C20.3636 7.60562 20.576 8.12101 21.0007 8.54574C21.4255 8.97047 21.9404 9.18235 22.5455 9.18138H23.2727V9.90865C23.2727 10.5147 23.4851 11.0301 23.9098 11.4548C24.3345 11.8796 24.8495 12.0914 25.4545 12.0905H27.6364C28.0485 12.0905 28.3942 12.2301 28.6735 12.5094C28.9527 12.7887 29.0919 13.1339 29.0909 13.545V26.6359C29.0909 27.4359 28.8063 28.121 28.2371 28.6912C27.6679 29.2614 26.9828 29.546 26.1818 29.545H2.90909Z" fill="#F4F4F4"/>
</svg>
