<svg width="20" height="20" viewBox="0 0 20 20" fill="none" xmlns="http://www.w3.org/2000/svg">
<path d="M10.0003 1.66602C5.41699 1.66602 1.66699 5.41602 1.66699 9.99935C1.66699 14.5827 5.41699 18.3327 10.0003 18.3327C14.5837 18.3327 18.3337 14.5827 18.3337 9.99935C18.3337 5.41602 14.5837 1.66602 10.0003 1.66602ZM10.0003 16.666C6.33366 16.666 3.33366 13.666 3.33366 9.99935C3.33366 6.33268 6.33366 3.33268 10.0003 3.33268C13.667 3.33268 16.667 6.33268 16.667 9.99935C16.667 13.666 13.667 16.666 10.0003 16.666Z" fill="#FF5E5E"/>
<path d="M13.3337 6.66602C13.0003 6.33268 12.5003 6.33268 12.167 6.66602L10.0003 8.83268L7.83366 6.66602C7.50033 6.33268 7.00033 6.33268 6.66699 6.66602C6.33366 6.99935 6.33366 7.49935 6.66699 7.83268L8.83366 9.99935L6.66699 12.166C6.33366 12.4993 6.33366 12.9993 6.66699 13.3327C6.83366 13.4993 7.08366 13.5827 7.25033 13.5827C7.41699 13.5827 7.66699 13.4993 7.83366 13.3327L10.0003 11.166L12.167 13.3327C12.3337 13.4993 12.5837 13.5827 12.7503 13.5827C12.917 13.5827 13.167 13.4993 13.3337 13.3327C13.667 12.9993 13.667 12.4993 13.3337 12.166L11.167 9.99935L13.3337 7.83268C13.667 7.49935 13.667 6.99935 13.3337 6.66602Z" fill="#FF5E5E"/>
</svg>
