<svg width="30" height="30" viewBox="0 0 30 30" fill="none" xmlns="http://www.w3.org/2000/svg">
<path d="M29.0769 15.1639C29.0947 14.144 28.9896 13.1256 28.7639 12.1309H14.8359V17.6359H23.0109C22.8561 18.6012 22.5075 19.5252 21.9863 20.3523C21.4651 21.1795 20.7819 21.8926 19.9779 22.4489L19.9499 22.6329L24.3499 26.0449L24.6549 26.0749C26.114 24.6665 27.2615 22.9678 28.0231 21.0883C28.7848 19.2089 29.1438 17.1907 29.0769 15.1639Z" fill="#4285F4"/>
<path d="M14.834 29.6686C18.4476 29.7708 21.9631 28.4851 24.658 26.0756L19.977 22.4496C18.4588 23.4672 16.6609 23.9856 14.834 23.9326C12.9588 23.9208 11.1349 23.3189 9.62086 22.2124C8.10686 21.1058 6.97964 19.5507 6.39903 17.7676L6.22503 17.7826L1.64203 21.3266L1.58203 21.4936C2.81538 23.9512 4.70799 26.0174 7.04828 27.4611C9.38856 28.9048 12.0843 29.6691 14.834 29.6686Z" fill="#34A853"/>
<path d="M6.40067 17.7667C6.07447 16.822 5.90555 15.8301 5.90067 14.8307C5.9067 13.8338 6.06797 12.8439 6.37867 11.8967L6.37067 11.6967L1.73467 8.09668L1.58267 8.16868C0.542052 10.2342 0 12.5148 0 14.8277C0 17.1405 0.542052 19.4212 1.58267 21.4867L6.40067 17.7667Z" fill="#FBBC05"/>
<path d="M14.834 5.73605C16.9597 5.70312 19.0155 6.49483 20.57 7.94504L24.757 3.85705C22.0716 1.33831 18.5156 -0.0435167 14.834 0.00104523C12.0844 0.000436129 9.38874 0.7646 7.04846 2.20811C4.70819 3.65162 2.81552 5.71758 1.58203 8.17505L6.37903 11.901C6.96561 10.1177 8.09712 8.56344 9.61403 7.45738C11.1309 6.35132 12.9567 5.74925 14.834 5.73605Z" fill="#EB4335"/>
</svg>
