<svg width="12" height="15" viewBox="0 0 12 15" fill="none" xmlns="http://www.w3.org/2000/svg">
<path d="M1.38333 7.92025H3.33333C3.45556 7.92025 3.57222 7.95091 3.68333 8.01225C3.79444 8.07358 3.87778 8.16514 3.93333 8.28692L4.66667 9.75358L6.73333 5.62025C6.85556 5.36469 7.05556 5.23691 7.33333 5.23691C7.61111 5.23691 7.81111 5.36469 7.93333 5.62025L9.08333 7.92025H10.6167C10.45 6.78691 9.93333 5.83691 9.06667 5.07025C8.2 4.30358 7.17778 3.92025 6 3.92025C4.82222 3.92025 3.8 4.30358 2.93333 5.07025C2.06667 5.83691 1.55 6.78691 1.38333 7.92025ZM6 13.2536C7.17778 13.2536 8.2 12.8702 9.06667 12.1036C9.93333 11.3369 10.45 10.3869 10.6167 9.25358H8.66667C8.54445 9.25358 8.42778 9.22314 8.31667 9.16225C8.20556 9.10136 8.12222 9.00958 8.06667 8.88692L7.33333 7.42025L5.26667 11.5536C5.14444 11.8091 4.94444 11.9369 4.66667 11.9369C4.38889 11.9369 4.18889 11.8091 4.06667 11.5536L2.91667 9.25358H1.38333C1.55 10.3869 2.06667 11.3369 2.93333 12.1036C3.8 12.8702 4.82222 13.2536 6 13.2536ZM6 14.5869C5.17778 14.5869 4.40289 14.4287 3.67533 14.1122C2.94778 13.7958 2.31156 13.3651 1.76667 12.8202C1.22178 12.2754 0.791333 11.6391 0.475333 10.9116C0.159333 10.184 0.000888889 9.40914 0 8.58692H1.33333C1.33333 9.8758 1.78889 10.9758 2.7 11.8869C3.61111 12.798 4.71111 13.2536 6 13.2536C7.28889 13.2536 8.38889 12.798 9.3 11.8869C10.2111 10.9758 10.6667 9.8758 10.6667 8.58692H12C12 9.40914 11.8418 10.1842 11.5253 10.9122C11.2089 11.6402 10.7782 12.2762 10.2333 12.8202C9.68845 13.3642 9.05222 13.7949 8.32467 14.1122C7.59711 14.4296 6.82222 14.5878 6 14.5869ZM0 8.58692C0 7.76469 0.158444 6.98958 0.475333 6.26158C0.792222 5.53358 1.22267 4.89758 1.76667 4.35358C2.31067 3.80958 2.94689 3.37914 3.67533 3.06225C4.40378 2.74536 5.17867 2.58691 6 2.58691C6.68889 2.58691 7.35 2.69803 7.98333 2.92025C8.61667 3.14247 9.21111 3.46469 9.76667 3.88691L10.7 2.95358L11.6333 3.88691L10.7 4.82025C11.1222 5.3758 11.4444 5.97025 11.6667 6.60358C11.8889 7.23691 12 7.89803 12 8.58692H10.6667C10.6667 7.29803 10.2111 6.19803 9.3 5.28691C8.38889 4.3758 7.28889 3.92025 6 3.92025C4.71111 3.92025 3.61111 4.3758 2.7 5.28691C1.78889 6.19803 1.33333 7.29803 1.33333 8.58692H0ZM4 1.92025V0.586914H8V1.92025H4ZM6 13.2536C4.71111 13.2536 3.61111 12.798 2.7 11.8869C1.78889 10.9758 1.33333 9.8758 1.33333 8.58692C1.33333 7.29803 1.78889 6.19803 2.7 5.28691C3.61111 4.3758 4.71111 3.92025 6 3.92025C7.28889 3.92025 8.38889 4.3758 9.3 5.28691C10.2111 6.19803 10.6667 7.29803 10.6667 8.58692C10.6667 9.8758 10.2111 10.9758 9.3 11.8869C8.38889 12.798 7.28889 13.2536 6 13.2536Z" fill="#F4F4F4" fill-opacity="0.5"/>
</svg>
