<svg width="69" height="6" viewBox="0 0 69 6" fill="none" xmlns="http://www.w3.org/2000/svg">
<path d="M10.3481 5.55078H3.86762C2.88324 5.55078 2.13129 5.3252 1.61176 4.87402C1.1059 4.40918 0.85297 3.81445 0.85297 3.08984C0.85297 2.35156 1.09906 1.75684 1.59125 1.30566C2.09711 0.84082 2.8559 0.608398 3.86762 0.608398H10.3481C11.3598 0.608398 12.1118 0.84082 12.6039 1.30566C13.1098 1.75684 13.3627 2.35156 13.3627 3.08984C13.3627 3.81445 13.1166 4.40918 12.6245 4.87402C12.1323 5.3252 11.3735 5.55078 10.3481 5.55078ZM24.0544 5.55078H17.5739C16.5896 5.55078 15.8376 5.3252 15.3181 4.87402C14.8122 4.40918 14.5593 3.81445 14.5593 3.08984C14.5593 2.35156 14.8054 1.75684 15.2976 1.30566C15.8034 0.84082 16.5622 0.608398 17.5739 0.608398H24.0544C25.0661 0.608398 25.8181 0.84082 26.3103 1.30566C26.8161 1.75684 27.0691 2.35156 27.0691 3.08984C27.0691 3.81445 26.823 4.40918 26.3308 4.87402C25.8386 5.3252 25.0798 5.55078 24.0544 5.55078ZM37.7607 5.55078H31.2803C30.2959 5.55078 29.5439 5.3252 29.0244 4.87402C28.5186 4.40918 28.2656 3.81445 28.2656 3.08984C28.2656 2.35156 28.5117 1.75684 29.0039 1.30566C29.5098 0.84082 30.2686 0.608398 31.2803 0.608398H37.7607C38.7725 0.608398 39.5244 0.84082 40.0166 1.30566C40.5225 1.75684 40.7754 2.35156 40.7754 3.08984C40.7754 3.81445 40.5293 4.40918 40.0371 4.87402C39.5449 5.3252 38.7861 5.55078 37.7607 5.55078ZM51.4671 5.55078H44.9866C44.0022 5.55078 43.2503 5.3252 42.7307 4.87402C42.2249 4.40918 41.972 3.81445 41.972 3.08984C41.972 2.35156 42.218 1.75684 42.7102 1.30566C43.2161 0.84082 43.9749 0.608398 44.9866 0.608398H51.4671C52.4788 0.608398 53.2307 0.84082 53.7229 1.30566C54.2288 1.75684 54.4817 2.35156 54.4817 3.08984C54.4817 3.81445 54.2356 4.40918 53.7434 4.87402C53.2513 5.3252 52.4925 5.55078 51.4671 5.55078ZM65.1734 5.55078H58.6929C57.7086 5.55078 56.9566 5.3252 56.4371 4.87402C55.9312 4.40918 55.6783 3.81445 55.6783 3.08984C55.6783 2.35156 55.9244 1.75684 56.4166 1.30566C56.9224 0.84082 57.6812 0.608398 58.6929 0.608398H65.1734C66.1851 0.608398 66.9371 0.84082 67.4293 1.30566C67.9351 1.75684 68.188 2.35156 68.188 3.08984C68.188 3.81445 67.942 4.40918 67.4498 4.87402C66.9576 5.3252 66.1988 5.55078 65.1734 5.55078Z" fill="#5565AF"/>
</svg>
