<svg width="24" height="25" viewBox="0 0 24 25" fill="none" xmlns="http://www.w3.org/2000/svg">
<path d="M12 14C12.8284 14 13.5 13.3284 13.5 12.5C13.5 11.6716 12.8284 11 12 11C11.1716 11 10.5 11.6716 10.5 12.5C10.5 13.3284 11.1716 14 12 14Z" fill="white"/>
<path d="M21.8898 10.82L21.0998 8.3C21.0145 8.00876 20.8714 7.73767 20.6791 7.50292C20.4867 7.26817 20.2491 7.07456 19.9803 6.93364C19.7116 6.79272 19.4171 6.70737 19.1147 6.6827C18.8122 6.65802 18.5079 6.69451 18.2198 6.79L17.8798 6.9C17.6134 6.98805 17.3297 7.01039 17.0529 6.96511C16.776 6.91984 16.5142 6.8083 16.2898 6.64L16.1798 6.56C15.9608 6.39237 15.7842 6.17562 15.6644 5.92723C15.5445 5.67884 15.4847 5.40575 15.4898 5.13V4.85C15.4947 4.22202 15.2501 3.61779 14.8098 3.17C14.6004 2.95845 14.3512 2.79036 14.0766 2.67538C13.8021 2.5604 13.5075 2.5008 13.2098 2.5H10.6598C10.048 2.50791 9.46404 2.75719 9.03514 3.19358C8.60624 3.62997 8.3671 4.21813 8.36979 4.83V5.07C8.36883 5.36027 8.30274 5.64663 8.1764 5.90796C8.05006 6.1693 7.86669 6.39895 7.63979 6.58L7.50979 6.68C7.25913 6.86962 6.96596 6.99516 6.65575 7.0457C6.34554 7.09624 6.02767 7.07025 5.72979 6.97C5.45621 6.87533 5.16626 6.83715 4.87749 6.85777C4.58872 6.8784 4.30714 6.9574 4.04979 7.09C3.78184 7.22299 3.54413 7.40969 3.35145 7.6385C3.15877 7.86731 3.01524 8.13333 2.92979 8.42L2.10979 11.02C1.91963 11.6062 1.9684 12.2437 2.2455 12.7942C2.5226 13.3447 3.00566 13.7636 3.58979 13.96H3.74979C4.01925 14.061 4.2611 14.2241 4.4557 14.4361C4.6503 14.648 4.79217 14.9029 4.86979 15.18L4.92979 15.34C5.04127 15.6461 5.07855 15.9743 5.03856 16.2977C4.99858 16.621 4.88248 16.9302 4.69979 17.2C4.33001 17.7036 4.17403 18.3328 4.2658 18.9508C4.35756 19.5688 4.68964 20.1256 5.18979 20.5L7.25979 22.07C7.65174 22.355 8.12523 22.5058 8.60979 22.5C8.73948 22.5127 8.8701 22.5127 8.99979 22.5C9.29989 22.4419 9.58501 22.3233 9.83775 22.1514C10.0905 21.9794 10.3055 21.7578 10.4698 21.5L10.6998 21.17C10.8611 20.9386 11.0746 20.7483 11.323 20.6145C11.5714 20.4808 11.8478 20.4073 12.1298 20.4C12.4253 20.3927 12.7179 20.4604 12.9802 20.5968C13.2425 20.7332 13.466 20.9339 13.6298 21.18L13.7498 21.35C13.9203 21.6037 14.1409 21.8199 14.3981 21.9852C14.6553 22.1504 14.9436 22.2613 15.2452 22.3109C15.5469 22.3606 15.8555 22.348 16.1521 22.2739C16.4487 22.1997 16.727 22.0657 16.9698 21.88L18.9998 20.36C19.4798 19.9872 19.799 19.445 19.8919 18.8444C19.9849 18.2438 19.8446 17.6304 19.4998 17.13L19.2398 16.75C19.0834 16.5084 18.9811 16.236 18.9396 15.9512C18.8982 15.6664 18.9187 15.3761 18.9998 15.1C19.0824 14.8044 19.2357 14.5334 19.4466 14.3104C19.6574 14.0874 19.9193 13.9191 20.2098 13.82L20.4098 13.75C20.9885 13.5492 21.4665 13.1312 21.7426 12.5845C22.0188 12.0377 22.0716 11.405 21.8898 10.82ZM11.9998 16C11.3076 16 10.6309 15.7947 10.0553 15.4101C9.47972 15.0256 9.03112 14.4789 8.76621 13.8394C8.50131 13.1999 8.43199 12.4961 8.56704 11.8172C8.70209 11.1383 9.03543 10.5146 9.52492 10.0251C10.0144 9.53564 10.638 9.2023 11.317 9.06725C11.9959 8.9322 12.6996 9.00151 13.3392 9.26642C13.9787 9.53133 14.5253 9.97993 14.9099 10.5555C15.2945 11.1311 15.4998 11.8078 15.4998 12.5C15.4998 13.4283 15.131 14.3185 14.4747 14.9749C13.8183 15.6313 12.928 16 11.9998 16Z" fill="white"/>
</svg>
