<svg width="12" height="14" viewBox="0 0 12 14" fill="none" xmlns="http://www.w3.org/2000/svg">
<path d="M11.0428 6.84403L6.35293 0.288789C6.31102 0.230367 6.25581 0.182745 6.19187 0.149853C6.12794 0.11696 6.05709 0.0997391 5.98519 0.0996094H5.98411C5.91193 0.0997602 5.84083 0.117134 5.77671 0.150288C5.7126 0.183442 5.65732 0.231418 5.61547 0.290229L0.95581 6.84547C0.907582 6.91321 0.878987 6.99296 0.873175 7.07591C0.867363 7.15887 0.88456 7.24182 0.92287 7.31563C0.960925 7.38954 1.01863 7.45152 1.08965 7.49474C1.16066 7.53796 1.24222 7.56075 1.32535 7.56061H3.51829L3.51811 13.4482C3.51809 13.5077 3.52979 13.5666 3.55254 13.6215C3.57529 13.6765 3.60865 13.7264 3.65071 13.7684C3.69278 13.8105 3.74271 13.8438 3.79767 13.8666C3.85262 13.8893 3.91152 13.901 3.97099 13.9009L8.02837 13.9007C8.08787 13.9008 8.14678 13.8891 8.20175 13.8663C8.25672 13.8435 8.30666 13.8102 8.34872 13.7681C8.39078 13.726 8.42414 13.6761 8.44688 13.6211C8.46962 13.5661 8.4813 13.5072 8.48125 13.4477V7.56079H10.6749C10.8441 7.56079 10.9995 7.46539 11.0776 7.31473C11.1157 7.24069 11.1327 7.15755 11.1266 7.07448C11.1204 6.99141 11.0914 6.91166 11.0428 6.84403Z" fill="#5565AF"/>
</svg>
